<?xml version="1.0" encoding="utf-8"?>
<!-- Svg Vector Icons : http://www.onlinewebfonts.com/icon -->
<!DOCTYPE svg PUBLIC "-//W3C//DTD SVG 1.1//EN" "http://www.w3.org/Graphics/SVG/1.1/DTD/svg11.dtd">
<svg version="1.1" xmlns="http://www.w3.org/2000/svg" xmlns:xlink="http://www.w3.org/1999/xlink" x="0px" y="0px" viewBox="0 0 1000 1000" enable-background="new 0 0 1000 1000" xml:space="preserve">
<metadata> Svg Vector Icons : http://www.onlinewebfonts.com/icon </metadata>
<g><g transform="translate(0.000000,511.000000) scale(0.100000,-0.100000)"><path d="M2041.5,4787.4c-23-19.1-51.7-55.5-65.1-80.4c-34.5-67-45.9-480.6-21.1-731.4c116.8-1129.6,708.4-2044.7,1625.4-2511.9c264.2-135.9,488.2-212.5,781.1-271.9c260.4-53.6,721.8-91.9,892.2-72.7l111,11.5l84.2-180c174.2-367.6,375.2-1053,415.5-1414.9c26.8-231.6,55.5-300.6,143.6-337c124.4-51.7,275.7,40.2,275.7,166.6c0,88.1,55.5,227.8,149.3,371.4c101.5,158.9,463.3,524.6,695,704.6c164.7,126.4,166.6,128.3,287.2,128.3c191.5,0,472.9,34.5,639.5,78.5c187.6,47.9,471,180,629.9,292.9c258.5,185.7,499.7,492,629.9,802.2c116.8,283.4,151.3,446.1,160.8,788.8c7.7,333.1,1.9,365.7-93.8,436.5c-51.7,38.3-61.3,38.3-281.4,15.3c-1062.6-109.1-1793.9-664.3-2002.6-1518.2c-17.2-67-36.4-222.1-42.1-344.6l-11.5-225.9l-224-181.9c-122.5-99.6-319.7-279.5-434.6-400.1L6175,94.9l-32.5,116.8c-103.4,381-294.8,884.5-413.5,1083.6c-55.5,95.7-57.4,107.2-45.9,247c24.9,310.2-46,802.2-166.6,1167.9c-271.9,817.5-961.1,1481.9-1901.1,1830.3c-394.4,147.4-911.3,254.6-1322.9,271.9C2108.5,4821.9,2076,4818.1,2041.5,4787.4z M2644.6,4368.1c1127.7-166.6,1985.4-719.9,2375.9-1525.9c158.9-331.2,248.9-733.3,248.9-1108.5v-212.5l-300.6,11.5c-758.1,28.7-1351.7,271.9-1822.6,746.7c-492,497.8-744.8,1106.6-798.4,1924.1l-11.5,195.3h51.7C2416.7,4398.8,2531.6,4385.4,2644.6,4368.1z M9071.7,2426.8c-17.2-204.9-90-449.9-199.1-658.6c-68.9-137.9-122.5-208.7-252.7-337c-90-90-212.5-191.5-273.8-227.8c-210.6-124.4-538-212.5-786.9-212.5h-112.9l13.4,137.9c59.3,641.4,446.1,1110.4,1093.2,1326.8c122.5,42.1,430.8,114.9,515,122.5C9077.4,2580,9079.3,2514.9,9071.7,2426.8z"/><path d="M222.7,45.1C90.6-12.3,100.2,133.2,100.2-1980.5v-1910.7l55.5-61.3l55.5-63.2l1076-5.7c951.5-3.8,1081.7-1.9,1139.2,26.8c93.8,44.1,124.4,124.4,124.4,331.2c0,143.6,5.7,174.2,28.7,174.2c57.4,0,352.3-124.4,892.2-375.2c1213.8-564.8,1648.4-708.4,2190.2-729.5c237.4-7.6,294.8-3.8,507.4,40.2c777.3,158.9,1929.8,662.4,2756.9,1206.2c308.2,204.8,492,352.3,691.1,562.9c206.8,216.4,273.8,344.6,281.4,539.9c24.9,534.2-321.6,899.8-852,899.8c-243.2,0-369.5-70.8-915.1-507.4c-446.1-358-693.1-515-832.8-530.3c-40.2-5.7-47.9,3.8-61.3,80.4c-36.4,208.7-178,386.7-394.4,495.9c-273.8,137.9-593.5,183.8-1196.6,170.4c-486.3-11.5-442.3-22.9-836.7,225.9c-675.8,425-1221.5,599.2-2042.8,650.9l-216.3,13.4v314c0,248.9-5.7,329.3-30.6,379.1C2460.8,73.8,2478,71.9,1321.6,71.9C488.8,70,270.5,66.2,222.7,45.1z M2129.6-1976.6V-3604h-813.7H502.2v1627.4v1627.4h813.7h813.7V-1976.6z M3039-1193.6c576.3-63.2,1018.5-224,1569.9-574.4c137.8-86.2,304.4-183.8,373.3-216.3l124.4-57.4l564.8-3.8c622.2-1.9,773.5-21.1,976.4-118.7c91.9-46,191.4-147.4,191.4-197.2c0-9.6-603.1-17.2-1342.1-17.2c-1487.6,0-1437.8,3.8-1499.1-124.4c-38.3-78.5-38.3-93.8,0-172.3c59.4-128.3-15.3-122.5,1751.8-126.3c1589-1.9,1596.7-1.9,1719.2,40.2c248.9,82.3,457.6,216.3,899.8,572.5c534.1,428.8,572.4,451.8,733.3,434.6c204.9-21.1,315.9-107.2,369.5-285.3c67-224,21.1-335-225.9-559.1c-570.5-515-1883.9-1215.7-2762.7-1472.3c-605-174.2-947.7-164.6-1577.6,46c-331.2,109.1-526.5,191.5-1246.4,526.5c-564.8,262.3-846.2,377.2-1012.8,413.5l-95.7,21.1v955.4v953.4l158.9-9.6C2795.8-1170.6,2945.2-1184,3039-1193.6z"/></g></g>
</svg>