<?xml version="1.0" encoding="utf-8"?>
<!-- Generator: Adobe Illustrator 16.0.0, SVG Export Plug-In . SVG Version: 6.00 Build 0)  -->
<!DOCTYPE svg PUBLIC "-//W3C//DTD SVG 1.1//EN" "http://www.w3.org/Graphics/SVG/1.1/DTD/svg11.dtd">
<svg version="1.1" id="Capa_1" xmlns="http://www.w3.org/2000/svg" xmlns:xlink="http://www.w3.org/1999/xlink" x="0px" y="0px"
	 width="1200px" height="549.525px" viewBox="0 0 1200 549.525" enable-background="new 0 0 1200 549.525" xml:space="preserve">
<path d="M806.059,475.502v-67.794h168.353v67.794H806.059z"/>
<path d="M945.864,145.121V77.302h156.014v67.819H945.864z"/>
<path d="M866.792,77.302c19.203,0,59.017,0,59.017,0s0,109.084,0,136.143c132.086,37.934,188.719,32.068,188.719,94.369
	c0,0,0,67.257,0,99.037c0,36.529-25.695,68.605-64.974,68.605h-55.241c0,0,0-111.372,0-146.293
	c-107.709-34.375-188.421-26.749-188.421-100.59c0-39.276,0-85.967,0-85.967C805.892,104.523,837.985,77.302,866.792,77.302z"/>
<path d="M548.533,165.455h119.919v310.047H548.533V165.455z"/>
<path d="M441.942,144.885V77.302h335.103v67.583H441.942z"/>
<path d="M223.247,77.302v61.302h67.545v102.034h-67.545v60.811h73.069v112.636h-73.069v61.417h125.568
	c45.034,0,66.464-31.129,66.464-60.193c0-35.242,0.035-48.067,0.018-93.586c0-32.303-19.101-53.536-61.958-53.536
	c26.432,0,48.93-22.744,48.93-54.315c0-31.568,0-54.733,0-82.633c0-26.675-25.608-53.936-59.327-53.936
	C320.915,77.302,223.247,77.302,223.247,77.302z"/>
<path d="M84.859,77.207h117.422v398.295H84.859V77.207z"/>
</svg>
