<?xml version="1.0" encoding="UTF-8" standalone="no"?>
<svg
   xmlns:dc="http://purl.org/dc/elements/1.1/"
   xmlns:cc="http://creativecommons.org/ns#"
   xmlns:rdf="http://www.w3.org/1999/02/22-rdf-syntax-ns#"
   xmlns:svg="http://www.w3.org/2000/svg"
   xmlns="http://www.w3.org/2000/svg"
   xmlns:sodipodi="http://sodipodi.sourceforge.net/DTD/sodipodi-0.dtd"
   xmlns:inkscape="http://www.inkscape.org/namespaces/inkscape"
   sodipodi:docname="sample data illustration.svg"
   inkscape:version="1.0beta2 (2f68234, 2020-04-05)"
   id="svg8"
   version="1.1"
   viewBox="0 0 420 297"
   height="297mm"
   width="420mm">
  <defs
     id="defs2">
    <inkscape:path-effect
       effect="ruler"
       id="path-effect992"
       is_visible="true"
       lpeversion="1"
       unit="mm"
       mark_distance="1"
       mark_length="4"
       minor_mark_length="2"
       major_mark_steps="5"
       shift="0"
       offset="0"
       mark_dir="left"
       border_marks="both" />
    <inkscape:path-effect
       border_marks="both"
       mark_dir="right"
       offset="0"
       shift="0"
       major_mark_steps="5"
       minor_mark_length="2"
       mark_length="4"
       mark_distance="1.75"
       unit="mm"
       lpeversion="1"
       is_visible="true"
       id="path-effect953"
       effect="ruler" />
    <inkscape:path-effect
       nr_y="21"
       nr_x="80"
       lpeversion="1"
       is_visible="true"
       id="path-effect1117"
       effect="construct_grid" />
    <inkscape:path-effect
       effect="ruler"
       id="path-effect1045"
       is_visible="true"
       lpeversion="1"
       unit="mm"
       mark_distance="10"
       mark_length="5"
       minor_mark_length="2"
       major_mark_steps="5"
       shift="0"
       offset="0"
       mark_dir="left"
       border_marks="both" />
  </defs>
  <sodipodi:namedview
     inkscape:object-paths="true"
     inkscape:snap-object-midpoints="true"
     inkscape:snap-bbox-midpoints="true"
     inkscape:snap-bbox="true"
     inkscape:snap-grids="false"
     inkscape:pagecheckerboard="0"
     inkscape:guide-bbox="true"
     showguides="true"
     showgrid="true"
     inkscape:document-rotation="0"
     inkscape:current-layer="layer1"
     inkscape:document-units="mm"
     inkscape:cy="314.08495"
     inkscape:cx="1132.8343"
     inkscape:zoom="1.4"
     inkscape:pageshadow="2"
     inkscape:pageopacity="0.0"
     borderopacity="1.0"
     bordercolor="#666666"
     pagecolor="#ffffff"
     id="base">
    <inkscape:grid
       visible="false"
       type="xygrid"
       id="grid844"
       spacingy="1"
       spacingx="1"
       units="mm"
       empspacing="5" />
  </sodipodi:namedview>
  <metadata
     id="metadata5">
    <rdf:RDF>
      <cc:Work
         rdf:about="">
        <dc:format>image/svg+xml</dc:format>
        <dc:type
           rdf:resource="http://purl.org/dc/dcmitype/StillImage" />
        <dc:title></dc:title>
      </cc:Work>
    </rdf:RDF>
  </metadata>
  <g
     sodipodi:insensitive="true"
     inkscape:label="Grid"
     id="layer2"
     inkscape:groupmode="layer">
    <path
       inkscape:connector-curvature="0"
       inkscape:original-d="m 10,110 v 5 h 5"
       inkscape:path-effect="#path-effect1117"
       sodipodi:nodetypes="ccc"
       id="path960"
       d="M 10,115 V 10 m 5,105 V 10 m 5,105 V 10 m 5,105 V 10 m 5,105 V 10 m 5,105 V 10 m 5,105 V 10 m 5,105 V 10 m 5,105 V 10 m 5,105 V 10 m 5,105 V 10 m 5,105 V 10 m 5,105 V 10 m 5,105 V 10 m 5,105 V 10 m 5,105 V 10 m 5,105 V 10 m 5,105 V 10 m 5,105 V 10 m 5,105 V 10 m 5,105 V 10 m 5,105 V 10 m 5,105 V 10 m 5,105 V 10 m 5,105 V 10 m 5,105 V 10 m 5,105 V 10 m 5,105 V 10 m 5,105 V 10 m 5,105 V 10 m 5,105 V 10 m 5,105 V 10 m 5,105 V 10 m 5,105 V 10 m 5,105 V 10 m 5,105 V 10 m 5,105 V 10 m 5,105 V 10 m 5,105 V 10 m 5,105 V 10 m 5,105 V 10 m 5,105 V 10 m 5,105 V 10 m 5,105 V 10 m 5,105 V 10 m 5,105 V 10 m 5,105 V 10 m 5,105 V 10 m 5,105 V 10 m 5,105 V 10 m 5,105 V 10 m 5,105 V 10 m 5,105 V 10 m 5,105 V 10 m 5,105 V 10 m 5,105 V 10 m 5,105 V 10 m 5,105 V 10 m 5,105 V 10 m 5,105 V 10 m 5,105 V 10 m 5,105 V 10 m 5,105 V 10 m 5,105 V 10 m 5,105 V 10 m 5,105 V 10 m 5,105 V 10 m 5,105 V 10 m 5,105 V 10 m 5,105 V 10 m 5,105 V 10 m 5,105 V 10 m 5,105 V 10 m 5,105 V 10 m 5,105 V 10 m 5,105 V 10 m 5,105 V 10 m 5,105 V 10 m 5,105 V 10 m 5,105 V 10 m 5,105 V 10 M 10,115 H 410 M 10,110 H 410 M 10,105 H 410 M 10,100 H 410 M 10,95 H 410 M 10,90 H 410 M 10,85 H 410 M 10,80 H 410 M 10,75 H 410 M 10,70 H 410 M 10,65 H 410 M 10,60 H 410 M 10,55 H 410 M 10,50 H 410 M 10,45 H 410 M 10,40 H 410 M 10,35 H 410 M 10,30 H 410 M 10,25 H 410 M 10,20 H 410 M 10,15 H 410 M 10,10 h 400"
       style="fill:none;stroke:#9bd1f4;stroke-width:0.264583px;stroke-linecap:butt;stroke-linejoin:miter;stroke-opacity:1" />
  </g>
  <g
     id="layer1"
     inkscape:groupmode="layer"
     inkscape:label="Layer 1">
    <path
       inkscape:connector-curvature="0"
       id="path1160"
       d="M 381.25,84.999998 V 31.999999"
       style="fill:none;stroke:#004a0b;stroke-width:0.26499999;stroke-linecap:butt;stroke-linejoin:miter;stroke-opacity:1;font-variation-settings:normal;opacity:1;vector-effect:none;fill-opacity:1;stroke-miterlimit:4;stroke-dasharray:1.05999995,1.05999995;stroke-dashoffset:0;stop-color:#000000;stop-opacity:1" />
    <path
       inkscape:connector-curvature="0"
       id="path1133"
       d="m 355,31.999999 h 26.24999"
       style="fill:none;stroke:#004a0b;stroke-width:0.26499999;stroke-linecap:butt;stroke-linejoin:miter;stroke-opacity:1;stroke-miterlimit:4;stroke-dasharray:1.05999995,1.05999995;stroke-dashoffset:0" />
    <rect
       y="65"
       x="20"
       height="5.0000038"
       width="99.999992"
       id="rect833"
       style="fill:#000000;stroke:#000000;stroke-width:0.3;stop-color:#000000;font-variation-settings:normal;opacity:1;vector-effect:none;fill-opacity:0.611765;stroke-linecap:butt;stroke-linejoin:miter;stroke-miterlimit:4;stroke-dasharray:none;stroke-dashoffset:0;stroke-opacity:1;stop-opacity:1" />
    <rect
       style="fill:#000000;fill-opacity:0.611765;stroke:#000000;stroke-width:0.3;stop-color:#000000;font-variation-settings:normal;opacity:1;vector-effect:none;stroke-linecap:butt;stroke-linejoin:miter;stroke-miterlimit:4;stroke-dasharray:none;stroke-dashoffset:0;stroke-opacity:1;stop-opacity:1"
       id="rect833-9"
       width="99.999992"
       height="5.0000038"
       x="120"
       y="65" />
    <rect
       y="65"
       x="220"
       height="5.0000038"
       width="99.999992"
       id="rect833-9-5"
       style="fill:#000000;stroke:#000000;stroke-width:0.3;stop-color:#000000;font-variation-settings:normal;opacity:1;vector-effect:none;fill-opacity:0.611765;stroke-linecap:butt;stroke-linejoin:miter;stroke-miterlimit:4;stroke-dasharray:none;stroke-dashoffset:0;stroke-opacity:1;stop-opacity:1" />
    <rect
       style="fill:#000000;fill-opacity:0.611765;stroke:#000000;stroke-width:0.3;stroke-miterlimit:4;stroke-dasharray:none;stroke-opacity:1;stop-color:#000000"
       id="rect833-1"
       width="50"
       height="5.0000038"
       x="20"
       y="90" />
    <rect
       y="90"
       x="90"
       height="5.0000038"
       width="29.999996"
       id="rect833-9-7"
       style="fill:#000000;fill-opacity:0.611765;stroke:#000000;stroke-width:0.3;stroke-miterlimit:4;stroke-dasharray:none;stroke-opacity:1;stop-color:#000000" />
    <rect
       y="90"
       x="120.00001"
       height="5.0000038"
       width="50.000011"
       id="rect833-1-7"
       style="fill:#000000;fill-opacity:0.611765;stroke:#000000;stroke-width:0.3;stroke-miterlimit:4;stroke-dasharray:none;stroke-opacity:1;stop-color:#000000" />
    <rect
       y="89.999992"
       x="170"
       height="4.9999976"
       width="69.999992"
       id="rect833-9-8"
       style="fill:#000000;fill-opacity:0.611765;stroke:#000000;stroke-width:0.3;stroke-miterlimit:4;stroke-dasharray:none;stroke-opacity:1;stop-color:#000000" />
    <rect
       style="fill:#000000;fill-opacity:0.611765;stroke:#000000;stroke-width:0.3;stroke-miterlimit:4;stroke-dasharray:none;stroke-opacity:1;stop-color:#000000"
       id="rect833-1-7-2"
       width="100.00001"
       height="5.0000038"
       x="220"
       y="90" />
    <text
       xml:space="preserve"
       style="font-size:4px;line-height:1.25;font-family:sans-serif;stroke-width:0.264583"
       x="19.690758"
       y="54.430103"
       id="text923"><tspan
         sodipodi:role="line"
         id="tspan921"
         x="19.690758"
         y="54.430103"
         style="stroke-width:0.264583">H001</tspan></text>
    <rect
       style="fill:#ff0000;stroke-width:0.999998;stop-color:#000000"
       id="rect967"
       width="90"
       height="5"
       x="90"
       y="55" />
    <rect
       y="100"
       x="50"
       height="5"
       width="50"
       id="rect967-0"
       style="fill:#ff0000;stroke-width:0.999991;stop-color:#000000" />
    <rect
       style="fill:#ff0000;stroke-width:0.99999;stop-color:#000000"
       id="rect967-0-5"
       width="50"
       height="5"
       x="200"
       y="100" />
    <rect
       y="55"
       x="210"
       height="5"
       width="20"
       id="rect967-0-5-3"
       style="fill:#ff0000;stroke-width:0.999988;stop-color:#000000" />
    <rect
       style="fill:#ff0000;stroke-width:0.999987;stop-color:#000000"
       id="rect967-0-5-3-7"
       width="20"
       height="5"
       x="260"
       y="55" />
    <rect
       style="fill:#ff0000;stroke-width:0.999987;stop-color:#000000"
       id="rect967-0-5-3-3"
       width="20"
       height="5"
       x="270"
       y="45" />
    <text
       xml:space="preserve"
       style="font-size:4px;line-height:1.25;font-family:sans-serif;stroke-width:0.264583"
       x="10"
       y="70"
       id="text1037"><tspan
         sodipodi:role="line"
         id="tspan1035"
         x="10"
         y="70"
         style="stroke-width:0.264583">L</tspan></text>
    <text
       xml:space="preserve"
       style="font-size:4px;line-height:1.25;font-family:sans-serif;stroke-width:0.264583"
       x="10"
       y="95"
       id="text1041"><tspan
         sodipodi:role="line"
         id="tspan1039"
         x="10"
         y="95"
         style="stroke-width:0.264583">R</tspan></text>
    <path
       style="fill:none;stroke:#000000;stroke-width:0.264583px;stroke-linecap:butt;stroke-linejoin:miter;stroke-opacity:1"
       d="m 20,79.999998 h 299.99999 m -299.99999,0 v -5 m 10,5 v -2 m 10,2 v -2 m 10,2 v -2 m 10,2 v -2 m 10,2 v -5 m 10,5 v -2 m 10,2 v -2 m 10,2 v -2 m 10,2 v -2 m 10,2 v -5 m 10,5 v -2 m 10,2 v -2 m 10,2 v -2 m 10,2 v -2 m 10,2 v -5 m 10,5 v -2 m 10,2 v -2 m 10,2 v -2 m 10,2 v -2 m 10,2 v -5 m 10,5 v -2 m 10,2 v -2 m 10,2 v -2 m 10,2 v -2 m 10,2 v -5 m 10,5 v -2 m 10,2 v -2 m 10,2 v -2 m 10,2 v -2 m 9.99999,2 v -5"
       id="path1043"
       inkscape:connector-curvature="0"
       inkscape:path-effect="#path-effect1045"
       inkscape:original-d="M 20,79.999998 H 319.99999" />
    <text
       id="text923-9"
       y="84.943497"
       x="67.426559"
       style="font-size:4px;line-height:1.25;font-family:sans-serif;stroke-width:0.264583"
       xml:space="preserve"><tspan
         style="stroke-width:0.264583"
         y="84.943497"
         x="67.426559"
         id="tspan921-1"
         sodipodi:role="line">50</tspan></text>
    <text
       xml:space="preserve"
       style="font-size:4px;line-height:1.25;font-family:sans-serif;stroke-width:0.264583"
       x="116.08363"
       y="84.943497"
       id="text923-9-1"><tspan
         sodipodi:role="line"
         id="tspan921-1-9"
         x="116.08363"
         y="84.943497"
         style="stroke-width:0.264583">100</tspan></text>
    <text
       xml:space="preserve"
       style="font-size:4px;line-height:1.25;font-family:sans-serif;stroke-width:0.264583"
       x="166.10301"
       y="84.943497"
       id="text1085"><tspan
         sodipodi:role="line"
         id="tspan1083"
         x="166.10301"
         y="84.943497"
         style="stroke-width:0.264583">150</tspan></text>
    <text
       xml:space="preserve"
       style="font-size:4px;line-height:1.25;font-family:sans-serif;stroke-width:0.264583"
       x="216.23665"
       y="84.943497"
       id="text1089"><tspan
         sodipodi:role="line"
         id="tspan1087"
         x="216.23665"
         y="84.943497"
         style="stroke-width:0.264583">200</tspan></text>
    <text
       xml:space="preserve"
       style="font-size:4px;line-height:1.25;font-family:sans-serif;stroke-width:0.264583"
       x="266.25601"
       y="84.943497"
       id="text1093"><tspan
         sodipodi:role="line"
         id="tspan1091"
         x="266.25601"
         y="84.943497"
         style="stroke-width:0.264583">250</tspan></text>
    <text
       xml:space="preserve"
       style="font-size:4px;line-height:1.25;font-family:sans-serif;stroke-width:0.264583"
       x="316.26953"
       y="84.943497"
       id="text1097"><tspan
         sodipodi:role="line"
         id="tspan1095"
         x="316.26953"
         y="84.943497"
         style="stroke-width:0.264583">300</tspan></text>
    <text
       xml:space="preserve"
       style="font-size:4px;line-height:1.25;font-family:sans-serif;stroke-width:0.264583"
       x="18.729445"
       y="84.943497"
       id="text923-9-0"><tspan
         sodipodi:role="line"
         id="tspan921-1-8"
         x="18.729445"
         y="84.943497"
         style="stroke-width:0.264583">0</tspan></text>
    <text
       xml:space="preserve"
       style="font-style:normal;font-variant:normal;font-weight:bold;font-stretch:normal;font-size:4px;line-height:1.25;font-family:sans-serif;-inkscape-font-specification:'sans-serif Bold';font-variant-ligatures:normal;font-variant-caps:normal;font-variant-numeric:normal;font-variant-east-asian:normal;fill:#000000;fill-opacity:1;stroke-width:0.264583"
       x="91.244049"
       y="54.086311"
       id="text1143"><tspan
         sodipodi:role="line"
         id="tspan1141"
         x="91.244049"
         y="54.086311"
         style="font-style:normal;font-variant:normal;font-weight:bold;font-stretch:normal;font-size:4px;font-family:sans-serif;-inkscape-font-specification:'sans-serif Bold';font-variant-ligatures:normal;font-variant-caps:normal;font-variant-numeric:normal;font-variant-east-asian:normal;fill:#000000;fill-opacity:1;stroke-width:0.264583">A - 1200</tspan></text>
    <text
       xml:space="preserve"
       style="font-style:normal;font-variant:normal;font-weight:bold;font-stretch:normal;font-size:4px;line-height:1.25;font-family:sans-serif;-inkscape-font-specification:'sans-serif Bold';font-variant-ligatures:normal;font-variant-caps:normal;font-variant-numeric:normal;font-variant-east-asian:normal;fill:#000000;fill-opacity:1;stroke-width:0.264583"
       x="210.67708"
       y="53.99181"
       id="text1147"><tspan
         sodipodi:role="line"
         id="tspan1145"
         x="210.67708"
         y="53.99181"
         style="font-style:normal;font-variant:normal;font-weight:bold;font-stretch:normal;font-size:4px;font-family:sans-serif;-inkscape-font-specification:'sans-serif Bold';font-variant-ligatures:normal;font-variant-caps:normal;font-variant-numeric:normal;font-variant-east-asian:normal;fill:#000000;fill-opacity:1;stroke-width:0.264583">B -60000</tspan></text>
    <text
       xml:space="preserve"
       style="font-style:normal;font-variant:normal;font-weight:bold;font-stretch:normal;font-size:4px;line-height:1.25;font-family:sans-serif;-inkscape-font-specification:'sans-serif Bold';font-variant-ligatures:normal;font-variant-caps:normal;font-variant-numeric:normal;font-variant-east-asian:normal;fill:#000000;fill-opacity:1;stroke-width:0.264583"
       x="260.96057"
       y="53.99181"
       id="text1151"><tspan
         sodipodi:role="line"
         id="tspan1149"
         x="260.96057"
         y="53.99181"
         style="font-style:normal;font-variant:normal;font-weight:bold;font-stretch:normal;font-size:4px;font-family:sans-serif;-inkscape-font-specification:'sans-serif Bold';font-variant-ligatures:normal;font-variant-caps:normal;font-variant-numeric:normal;font-variant-east-asian:normal;fill:#000000;fill-opacity:1;stroke-width:0.264583">C - 2400</tspan></text>
    <text
       xml:space="preserve"
       style="font-style:normal;font-variant:normal;font-weight:bold;font-stretch:normal;font-size:4px;line-height:1.25;font-family:sans-serif;-inkscape-font-specification:'sans-serif Bold';font-variant-ligatures:normal;font-variant-caps:normal;font-variant-numeric:normal;font-variant-east-asian:normal;fill:#000000;fill-opacity:1;stroke-width:0.264583"
       x="270.96057"
       y="43.991814"
       id="text1155"><tspan
         sodipodi:role="line"
         id="tspan1153"
         x="270.96057"
         y="43.991814"
         style="font-style:normal;font-variant:normal;font-weight:bold;font-stretch:normal;font-size:4px;font-family:sans-serif;-inkscape-font-specification:'sans-serif Bold';font-variant-ligatures:normal;font-variant-caps:normal;font-variant-numeric:normal;font-variant-east-asian:normal;fill:#000000;fill-opacity:1;stroke-width:0.264583">D - 48000</tspan></text>
    <text
       xml:space="preserve"
       style="font-style:normal;font-variant:normal;font-weight:bold;font-stretch:normal;font-size:4px;line-height:1.25;font-family:sans-serif;-inkscape-font-specification:'sans-serif Bold';font-variant-ligatures:normal;font-variant-caps:normal;font-variant-numeric:normal;font-variant-east-asian:normal;fill:#000000;fill-opacity:1;stroke-width:0.264583"
       x="50.86607"
       y="98.991814"
       id="text1159"><tspan
         sodipodi:role="line"
         id="tspan1157"
         x="50.86607"
         y="98.991814"
         style="font-style:normal;font-variant:normal;font-weight:bold;font-stretch:normal;font-size:4px;font-family:sans-serif;-inkscape-font-specification:'sans-serif Bold';font-variant-ligatures:normal;font-variant-caps:normal;font-variant-numeric:normal;font-variant-east-asian:normal;fill:#000000;fill-opacity:1;stroke-width:0.264583">E - 120</tspan></text>
    <text
       xml:space="preserve"
       style="font-style:normal;font-variant:normal;font-weight:bold;font-stretch:normal;font-size:4px;line-height:1.25;font-family:sans-serif;-inkscape-font-specification:'sans-serif Bold';font-variant-ligatures:normal;font-variant-caps:normal;font-variant-numeric:normal;font-variant-east-asian:normal;fill:#000000;fill-opacity:1;stroke-width:0.264583"
       x="200.67708"
       y="99.180801"
       id="text1163"><tspan
         sodipodi:role="line"
         id="tspan1161"
         x="200.67708"
         y="99.180801"
         style="font-style:normal;font-variant:normal;font-weight:bold;font-stretch:normal;font-size:4px;font-family:sans-serif;-inkscape-font-specification:'sans-serif Bold';font-variant-ligatures:normal;font-variant-caps:normal;font-variant-numeric:normal;font-variant-east-asian:normal;fill:#000000;fill-opacity:1;stroke-width:0.264583">F - 6000</tspan></text>
    <rect
       y="100"
       x="345"
       height="5"
       width="20"
       id="rect967-0-5-3-7-2"
       style="fill:#ff0000;stroke:#424242;stroke-width:0.4;stroke-miterlimit:4;stroke-dasharray:none;stroke-opacity:1;stop-color:#000000" />
    <rect
       y="100"
       x="365"
       height="5"
       width="20"
       id="rect967-0-5-3-3-8"
       style="fill:#ff0000;stroke:#424242;stroke-width:0.4;stroke-miterlimit:4;stroke-dasharray:none;stroke-opacity:1;stop-color:#000000" />
    <text
       id="text1151-8"
       y="103.95605"
       x="345.84366"
       style="font-style:normal;font-variant:normal;font-weight:bold;font-stretch:normal;font-size:4px;line-height:1.25;font-family:sans-serif;-inkscape-font-specification:'sans-serif Bold';font-variant-ligatures:normal;font-variant-caps:normal;font-variant-numeric:normal;font-variant-east-asian:normal;fill:#000000;fill-opacity:1;stroke-width:0.264583"
       xml:space="preserve"><tspan
         style="font-style:normal;font-variant:normal;font-weight:bold;font-stretch:normal;font-size:4px;font-family:sans-serif;-inkscape-font-specification:'sans-serif Bold';font-variant-ligatures:normal;font-variant-caps:normal;font-variant-numeric:normal;font-variant-east-asian:normal;fill:#000000;fill-opacity:1;stroke-width:0.264583"
         y="103.95605"
         x="345.84366"
         id="tspan1149-3"
         sodipodi:role="line">C - 2400</tspan></text>
    <text
       transform="scale(0.91402975,1.0940563)"
       id="text1155-7"
       y="95.018929"
       x="400.16541"
       style="font-style:normal;font-variant:normal;font-weight:bold;font-stretch:normal;font-size:3.65612px;line-height:1.25;font-family:sans-serif;-inkscape-font-specification:'sans-serif Bold';font-variant-ligatures:normal;font-variant-caps:normal;font-variant-numeric:normal;font-variant-east-asian:normal;fill:#000000;fill-opacity:1;stroke-width:0.264583"
       xml:space="preserve"><tspan
         style="font-style:normal;font-variant:normal;font-weight:bold;font-stretch:normal;font-size:3.65612px;font-family:sans-serif;-inkscape-font-specification:'sans-serif Bold';font-variant-ligatures:normal;font-variant-caps:normal;font-variant-numeric:normal;font-variant-east-asian:normal;fill:#000000;fill-opacity:1;stroke-width:0.264583"
         y="95.018929"
         x="400.16541"
         id="tspan1153-1"
         sodipodi:role="line">D - 48000</tspan></text>
    <rect
       y="100"
       x="385"
       height="5"
       width="10"
       id="rect967-0-5-3-9-1"
       style="fill:#ff0000;stroke:#424242;stroke-width:0.4;stroke-miterlimit:4;stroke-dasharray:none;stroke-opacity:1;stop-color:#000000" />
    <path
       inkscape:original-d="m 355,85 h 35"
       inkscape:path-effect="#path-effect953"
       inkscape:connector-curvature="0"
       id="path1043-0"
       d="m 355,85 h 35 m -35,0 v 4 m 1.75,-4 v 2 m 1.75,-2 v 2 m 1.75,-2 v 2 M 362,85 v 2 m 1.75,-2 v 4 m 1.75,-4 v 2 m 1.75,-2 v 2 M 369,85 v 2 m 1.75,-2 v 2 m 1.75,-2 v 4 m 1.75,-4 v 2 M 376,85 v 2 m 1.75,-2 v 2 m 1.75,-2 v 2 m 1.75,-2 v 4 M 383,85 v 2 m 1.75,-2 v 2 m 1.75,-2 v 2 m 1.75,-2 v 2 M 390,85 v 4"
       style="fill:none;stroke:#000000;stroke-width:0.264583px;stroke-linecap:butt;stroke-linejoin:miter;stroke-opacity:1" />
    <text
       transform="rotate(-90)"
       id="text957"
       y="355.88162"
       x="-91.767624"
       style="font-weight:bold;font-size:2.82223px;line-height:1.25;font-family:sans-serif;-inkscape-font-specification:'sans-serif Bold';text-align:center;letter-spacing:0px;word-spacing:0px;text-anchor:middle;stroke-width:0.264583"
       xml:space="preserve"><tspan
         style="stroke-width:0.264583"
         y="355.88162"
         x="-91.767624"
         id="tspan955"
         sodipodi:role="line">0%</tspan></text>
    <text
       transform="rotate(-90)"
       id="text961"
       y="364.6691"
       x="-92.74881"
       style="font-weight:bold;font-size:2.82223px;line-height:1.25;font-family:sans-serif;-inkscape-font-specification:'sans-serif Bold';text-align:center;letter-spacing:0px;word-spacing:0px;text-anchor:middle;stroke-width:0.264583"
       xml:space="preserve"><tspan
         style="stroke-width:0.264583"
         y="364.6691"
         x="-92.74881"
         id="tspan959"
         sodipodi:role="line">25%</tspan></text>
    <text
       transform="rotate(-90)"
       id="text965"
       y="373.4566"
       x="-92.74881"
       style="font-weight:bold;font-size:2.82223px;line-height:1.25;font-family:sans-serif;-inkscape-font-specification:'sans-serif Bold';text-align:center;letter-spacing:0px;word-spacing:0px;text-anchor:middle;stroke-width:0.264583"
       xml:space="preserve"><tspan
         style="stroke-width:0.264583"
         y="373.4566"
         x="-92.74881"
         id="tspan963"
         sodipodi:role="line">50%</tspan></text>
    <text
       transform="rotate(-90)"
       id="text969"
       y="382.24411"
       x="-92.74881"
       style="font-weight:bold;font-size:2.82223px;line-height:1.25;font-family:sans-serif;-inkscape-font-specification:'sans-serif Bold';text-align:center;letter-spacing:0px;word-spacing:0px;text-anchor:middle;stroke-width:0.264583"
       xml:space="preserve"><tspan
         style="stroke-width:0.264583"
         y="382.24411"
         x="-92.74881"
         id="tspan967"
         sodipodi:role="line">75%</tspan></text>
    <text
       transform="rotate(-90)"
       id="text973"
       y="391.03159"
       x="-93.729965"
       style="font-weight:bold;font-size:2.82223px;line-height:1.25;font-family:sans-serif;-inkscape-font-specification:'sans-serif Bold';text-align:center;letter-spacing:0px;word-spacing:0px;text-anchor:middle;stroke-width:0.264583"
       xml:space="preserve"><tspan
         style="stroke-width:0.264583"
         y="391.03159"
         x="-93.729965"
         id="tspan971"
         sodipodi:role="line">100%</tspan></text>
    <path
       style="fill:none;stroke:#000000;stroke-width:0.264583px;stroke-linecap:butt;stroke-linejoin:miter;stroke-opacity:1"
       d="M 355,85 V 20 m 0,65 h -4 m 4,-1 h -2 m 2,-1 h -2 m 2,-1 h -2 m 2,-1 h -2 m 2,-1 h -4 m 4,-1 h -2 m 2,-1 h -2 m 2,-1 h -2 m 2,-1 h -2 m 2,-1 h -4 m 4,-1 h -2 m 2,-1 h -2 m 2,-1 h -2 m 2,-1 h -2 m 2,-1 h -4 m 4,-1 h -2 m 2,-1 h -2 m 2,-1 h -2 m 2,-1 h -2 m 2,-1 h -4 m 4,-1 h -2 m 2,-1 h -2 m 2,-1 h -2 m 2,-1 h -2 m 2,-1 h -4 m 4,-1 h -2 m 2,-1 h -2 m 2,-1 h -2 m 2,-1 h -2 m 2,-1 h -4 m 4,-1 h -2 m 2,-1 h -2 m 2,-1 h -2 m 2,-1 h -2 m 2,-1 h -4 m 4,-1 h -2 m 2,-1 h -2 m 2,-1 h -2 m 2,-1 h -2 m 2,-1 h -4 m 4,-1 h -2 m 2,-1 h -2 m 2,-1 h -2 m 2,-1 h -2 m 2,-1 h -4 m 4,-1 h -2 m 2,-1 h -2 m 2,-1 h -2 m 2,-1 h -2 m 2,-1 h -4 m 4,-1 h -2 m 2,-1 h -2 m 2,-1 h -2 m 2,-1 h -2 m 2,-1 h -4 m 4,-1 h -2 m 2,-1 h -2 m 2,-1 h -2 m 2,-1 h -2 m 2,-1 h -4 m 4,-1 h -2 m 2,-1 h -2 m 2,-1 h -2 m 2,-1 h -2 m 2,-1 h -4"
       id="path1043-0-1"
       inkscape:connector-curvature="0"
       inkscape:path-effect="#path-effect992"
       inkscape:original-d="M 355,85 V 20" />
    <text
       id="text1147-0"
       y="103.95605"
       x="385.25122"
       style="font-style:normal;font-variant:normal;font-weight:bold;font-stretch:normal;font-size:4px;line-height:1.25;font-family:sans-serif;-inkscape-font-specification:'sans-serif Bold';font-variant-ligatures:normal;font-variant-caps:normal;font-variant-numeric:normal;font-variant-east-asian:normal;fill:#000000;fill-opacity:1;stroke-width:0.264583"
       xml:space="preserve"><tspan
         style="font-style:normal;font-variant:normal;font-weight:bold;font-stretch:normal;font-size:4px;font-family:sans-serif;-inkscape-font-specification:'sans-serif Bold';font-variant-ligatures:normal;font-variant-caps:normal;font-variant-numeric:normal;font-variant-east-asian:normal;fill:#000000;fill-opacity:1;stroke-width:0.264583"
         y="103.95605"
         x="385.25122"
         id="tspan1145-5"
         sodipodi:role="line">B -60000</tspan></text>
    <text
       xml:space="preserve"
       style="font-weight:bold;font-size:2.82223px;line-height:1.25;font-family:sans-serif;-inkscape-font-specification:'sans-serif Bold';text-align:center;letter-spacing:0px;word-spacing:0px;text-anchor:middle;stroke-width:0.264583"
       x="349.33954"
       y="85.97683"
       id="text957-4"><tspan
         sodipodi:role="line"
         id="tspan955-5"
         x="349.33954"
         y="85.97683"
         style="stroke-width:0.264583">0</tspan></text>
    <text
       id="text957-4-3"
       y="75.962326"
       x="345.41489"
       style="font-weight:bold;font-size:2.82223px;line-height:1.25;font-family:sans-serif;-inkscape-font-specification:'sans-serif Bold';text-align:center;letter-spacing:0px;word-spacing:0px;text-anchor:middle;stroke-width:0.264583"
       xml:space="preserve"><tspan
         style="stroke-width:0.264583"
         y="75.962326"
         x="345.41489"
         id="tspan955-5-1"
         sodipodi:role="line">10000</tspan></text>
    <text
       xml:space="preserve"
       style="font-weight:bold;font-size:2.82223px;line-height:1.25;font-family:sans-serif;-inkscape-font-specification:'sans-serif Bold';text-align:center;letter-spacing:0px;word-spacing:0px;text-anchor:middle;stroke-width:0.264583"
       x="345.41489"
       y="65.947815"
       id="text957-4-3-9"><tspan
         sodipodi:role="line"
         id="tspan955-5-1-9"
         x="345.41489"
         y="65.947815"
         style="stroke-width:0.264583">20000</tspan></text>
    <text
       xml:space="preserve"
       style="font-weight:bold;font-size:2.82223px;line-height:1.25;font-family:sans-serif;-inkscape-font-specification:'sans-serif Bold';text-align:center;letter-spacing:0px;word-spacing:0px;text-anchor:middle;stroke-width:0.264583"
       x="345.41489"
       y="55.933304"
       id="text957-4-3-1"><tspan
         sodipodi:role="line"
         id="tspan955-5-1-99"
         x="345.41489"
         y="55.933304"
         style="stroke-width:0.264583">30000</tspan></text>
    <text
       xml:space="preserve"
       style="font-weight:bold;font-size:2.82223px;line-height:1.25;font-family:sans-serif;-inkscape-font-specification:'sans-serif Bold';text-align:center;letter-spacing:0px;word-spacing:0px;text-anchor:middle;stroke-width:0.264583"
       x="345.41489"
       y="45.918797"
       id="text957-4-3-7"><tspan
         sodipodi:role="line"
         id="tspan955-5-1-5"
         x="345.41489"
         y="45.918797"
         style="stroke-width:0.264583">40000</tspan></text>
    <text
       xml:space="preserve"
       style="font-weight:bold;font-size:2.82223px;line-height:1.25;font-family:sans-serif;-inkscape-font-specification:'sans-serif Bold';text-align:center;letter-spacing:0px;word-spacing:0px;text-anchor:middle;stroke-width:0.264583"
       x="345.41489"
       y="35.904285"
       id="text957-4-3-92"><tspan
         sodipodi:role="line"
         id="tspan955-5-1-92"
         x="345.41489"
         y="35.904285"
         style="stroke-width:0.264583">50000</tspan></text>
    <text
       xml:space="preserve"
       style="font-weight:bold;font-size:2.82223px;line-height:1.25;font-family:sans-serif;-inkscape-font-specification:'sans-serif Bold';text-align:center;letter-spacing:0px;word-spacing:0px;text-anchor:middle;stroke-width:0.264583"
       x="345.41489"
       y="25.889776"
       id="text957-4-3-3"><tspan
         sodipodi:role="line"
         id="tspan955-5-1-59"
         x="345.41489"
         y="25.889776"
         style="stroke-width:0.264583">60000</tspan></text>
    <path
       inkscape:connector-curvature="0"
       id="path1135"
       d="M 389.99998,25 374.99999,37 355,82.599997"
       style="fill:none;stroke:#464646;stroke-width:0.265;stroke-linecap:butt;stroke-linejoin:miter;stroke-opacity:1;stroke-miterlimit:4;stroke-dasharray:none" />
    <circle
       r="0.68487817"
       cy="82.599998"
       cx="355"
       id="path1137"
       style="fill:none;fill-opacity:1;stroke:#464646;stroke-width:0.4;stroke-miterlimit:4;stroke-dasharray:none;stroke-opacity:1;stop-color:#000000" />
    <circle
       style="fill:none;fill-opacity:1;stroke:#464646;stroke-width:0.4;stroke-miterlimit:4;stroke-dasharray:none;stroke-opacity:1;stop-color:#000000"
       id="path1137-6"
       cx="375"
       cy="37"
       r="0.68487817" />
    <circle
       style="fill:none;fill-opacity:1;stroke:#464646;stroke-width:0.4;stroke-miterlimit:4;stroke-dasharray:none;stroke-opacity:1;stop-color:#000000"
       id="path1137-7"
       cx="390"
       cy="25"
       r="0.68487817" />
  </g>
</svg>
