<?xml version="1.0" encoding="UTF-8" standalone="no"?>
<!DOCTYPE svg PUBLIC "-//W3C//DTD SVG 1.1//EN"
 "http://www.w3.org/Graphics/SVG/1.1/DTD/svg11.dtd">
<!-- Generated by graphviz version 2.50.0 (20220216.1147)
 -->
<!-- Pages: 1 -->
<svg width="210pt" height="332pt"
 viewBox="0.00 0.00 209.59 332.00" xmlns="http://www.w3.org/2000/svg" xmlns:xlink="http://www.w3.org/1999/xlink">
<g id="graph0" class="graph" transform="scale(1 1) rotate(0) translate(4 328)">
<polygon fill="white" stroke="transparent" points="-4,4 -4,-328 205.59,-328 205.59,4 -4,4"/>
<!-- p1&#45;1 -->
<g id="node1" class="node">
<title>p1&#45;1</title>
<ellipse fill="none" stroke="black" cx="28.6" cy="-90" rx="28.7" ry="18"/>
<text text-anchor="middle" x="28.6" y="-86.3" font-family="Times,serif" font-size="14.00">p1&#45;1</text>
</g>
<!-- root -->
<g id="node2" class="node">
<title>root</title>
<ellipse fill="none" stroke="black" cx="65.6" cy="-18" rx="27" ry="18"/>
<text text-anchor="middle" x="65.6" y="-14.3" font-family="Times,serif" font-size="14.00">root</text>
</g>
<!-- p1&#45;1&#45;&gt;root -->
<g id="edge1" class="edge">
<title>p1&#45;1&#45;&gt;root</title>
<path fill="none" stroke="black" d="M37.18,-72.76C41.66,-64.28 47.25,-53.71 52.28,-44.2"/>
<polygon fill="black" stroke="black" points="55.48,-45.62 57.06,-35.15 49.29,-42.35 55.48,-45.62"/>
</g>
<!-- p1&#45;2 -->
<g id="node3" class="node">
<title>p1&#45;2</title>
<ellipse fill="none" stroke="black" cx="103.6" cy="-90" rx="28.7" ry="18"/>
<text text-anchor="middle" x="103.6" y="-86.3" font-family="Times,serif" font-size="14.00">p1&#45;2</text>
</g>
<!-- p1&#45;2&#45;&gt;root -->
<g id="edge2" class="edge">
<title>p1&#45;2&#45;&gt;root</title>
<path fill="none" stroke="black" d="M94.78,-72.76C90.18,-64.28 84.44,-53.71 79.28,-44.2"/>
<polygon fill="black" stroke="black" points="82.21,-42.27 74.36,-35.15 76.06,-45.61 82.21,-42.27"/>
</g>
<!-- p1&#45;2&#45;1 -->
<g id="node4" class="node">
<title>p1&#45;2&#45;1</title>
<ellipse fill="none" stroke="black" cx="58.6" cy="-162" rx="36.29" ry="18"/>
<text text-anchor="middle" x="58.6" y="-158.3" font-family="Times,serif" font-size="14.00">p1&#45;2&#45;1</text>
</g>
<!-- p1&#45;2&#45;1&#45;&gt;p1&#45;2 -->
<g id="edge3" class="edge">
<title>p1&#45;2&#45;1&#45;&gt;p1&#45;2</title>
<path fill="none" stroke="black" d="M69.26,-144.41C74.78,-135.83 81.62,-125.19 87.74,-115.67"/>
<polygon fill="black" stroke="black" points="90.86,-117.29 93.32,-106.99 84.97,-113.51 90.86,-117.29"/>
</g>
<!-- p1&#45;2&#45;2 -->
<g id="node5" class="node">
<title>p1&#45;2&#45;2</title>
<ellipse fill="none" stroke="black" cx="149.6" cy="-162" rx="36.29" ry="18"/>
<text text-anchor="middle" x="149.6" y="-158.3" font-family="Times,serif" font-size="14.00">p1&#45;2&#45;2</text>
</g>
<!-- p1&#45;2&#45;2&#45;&gt;p1&#45;2 -->
<g id="edge4" class="edge">
<title>p1&#45;2&#45;2&#45;&gt;p1&#45;2</title>
<path fill="none" stroke="black" d="M138.93,-144.76C133.24,-136.11 126.12,-125.27 119.77,-115.6"/>
<polygon fill="black" stroke="black" points="122.63,-113.58 114.21,-107.15 116.78,-117.43 122.63,-113.58"/>
</g>
<!-- p1&#45;2&#45;2&#45;1 -->
<g id="node6" class="node">
<title>p1&#45;2&#45;2&#45;1</title>
<ellipse fill="none" stroke="black" cx="149.6" cy="-234" rx="44.39" ry="18"/>
<text text-anchor="middle" x="149.6" y="-230.3" font-family="Times,serif" font-size="14.00">p1&#45;2&#45;2&#45;1</text>
</g>
<!-- p1&#45;2&#45;2&#45;1&#45;&gt;p1&#45;2&#45;2 -->
<g id="edge5" class="edge">
<title>p1&#45;2&#45;2&#45;1&#45;&gt;p1&#45;2&#45;2</title>
<path fill="none" stroke="black" d="M149.6,-215.7C149.6,-207.98 149.6,-198.71 149.6,-190.11"/>
<polygon fill="black" stroke="black" points="153.1,-190.1 149.6,-180.1 146.1,-190.1 153.1,-190.1"/>
</g>
<!-- p1&#45;2&#45;2&#45;1&#45;1 -->
<g id="node7" class="node">
<title>p1&#45;2&#45;2&#45;1&#45;1</title>
<ellipse fill="none" stroke="black" cx="149.6" cy="-306" rx="51.99" ry="18"/>
<text text-anchor="middle" x="149.6" y="-302.3" font-family="Times,serif" font-size="14.00">p1&#45;2&#45;2&#45;1&#45;1</text>
</g>
<!-- p1&#45;2&#45;2&#45;1&#45;1&#45;&gt;p1&#45;2&#45;2&#45;1 -->
<g id="edge6" class="edge">
<title>p1&#45;2&#45;2&#45;1&#45;1&#45;&gt;p1&#45;2&#45;2&#45;1</title>
<path fill="none" stroke="black" d="M149.6,-287.7C149.6,-279.98 149.6,-270.71 149.6,-262.11"/>
<polygon fill="black" stroke="black" points="153.1,-262.1 149.6,-252.1 146.1,-262.1 153.1,-262.1"/>
</g>
</g>
</svg>
